 <svg  version="1.0" xmlns="http://www.w3.org/2000/svg"  width="200.000000pt" height="200.000000pt" viewBox="0 0 200.000000 200.000000"  preserveAspectRatio="xMidYMid meet">  <g transform="translate(0.000000,200.000000) scale(0.100000,-0.100000)" fill="#ff8000" stroke="none"> <path d="M913 1866 c-97 -32 -153 -78 -199 -166 -22 -42 -26 -62 -25 -129 0 -44 5 -91 11 -106 17 -44 74 -125 92 -131 22 -7 24 -24 2 -24 -24 0 -54 -42 -43 -61 9 -18 78 -49 110 -49 11 0 22 -7 26 -16 7 -20 -14 -149 -31 -188 -8 -17 -31 -76 -53 -130 -37 -96 -39 -99 -83 -119 -66 -28 -100 -64 -100 -103 0 -32 17 -58 42 -66 14 -5 13 -8 -38 -97 -27 -48 -64 -185 -64 -239 0 -34 25 -82 43 -82 6 0 18 -6 26 -14 9 -8 50 -25 91 -37 68 -21 94 -24 270 -24 213 0 279 12 369 69 52 33 54 37 52 111 -2 95 -47 226 -99 287 -12 14 -11 18 5 26 10 6 26 24 35 40 17 29 17 31 -5 63 -14 21 -45 44 -79 61 -55 26 -57 28 -87 108 -18 45 -36 89 -41 98 -23 43 -50 151 -50 199 0 52 0 53 31 53 16 0 48 10 69 23 49 27 54 61 13 79 -16 7 -30 13 -32 14 -2 2 13 17 33 34 20 18 36 38 36 46 0 8 4 14 8 14 11 0 44 94 49 138 2 19 -6 68 -18 108 -16 56 -31 83 -65 119 -78 82 -208 121 -301 91z m27 -21 c0 -8 7 -15 16 -15 14 0 14 3 4 15 -10 12 -9 15 8 15 11 0 22 -7 26 -15 4 -11 21 -15 61 -15 39 0 57 -4 61 -14 3 -8 12 -12 20 -9 8 3 14 0 14 -6 0 -6 -4 -11 -10 -11 -5 0 -10 -5 -10 -11 0 -6 9 -8 21 -4 14 5 27 0 40 -13 18 -20 18 -21 -4 -25 -15 -3 -12 -5 11 -6 19 0 31 -5 27 -11 -3 -5 -1 -10 4 -10 21 0 11 -19 -11 -23 -21 -4 -20 -4 3 -6 30 -1 47 -30 27 -43 -10 -6 -9 -8 3 -8 21 0 20 -67 -1 -80 -13 -8 -12 -10 3 -10 15 0 16 -3 5 -22 -7 -13 -11 -31 -9 -40 1 -10 -4 -18 -11 -18 -10 0 -10 -2 1 -9 11 -7 10 -11 -7 -22 -12 -7 -18 -19 -14 -28 3 -9 1 -13 -3 -9 -5 5 -15 -1 -22 -12 -8 -11 -19 -18 -24 -15 -5 3 -6 -1 -3 -9 5 -12 -1 -16 -27 -17 -22 -1 -26 -3 -12 -6 12 -2 24 -11 27 -19 3 -9 1 -12 -4 -9 -6 3 -10 1 -10 -4 0 -10 20 -15 42 -13 3 1 9 -5 12 -13 7 -18 -56 -20 -149 -5 -33 5 -97 11 -143 14 -79 4 -113 13 -85 23 9 3 10 10 3 24 -8 14 -7 19 2 19 7 1 1 6 -15 13 -30 13 -65 67 -44 68 7 0 3 4 -9 9 -19 8 -26 23 -40 94 -3 11 1 24 8 29 10 7 10 10 1 14 -22 8 -15 36 7 30 11 -3 20 -1 20 4 0 5 -10 9 -22 10 -22 0 -22 1 -3 9 11 5 14 9 8 9 -9 1 -10 8 -3 25 5 13 6 27 2 32 -4 4 -1 4 6 0 6 -4 12 -15 12 -24 0 -9 5 -24 11 -32 11 -15 9 -3 -7 66 -5 19 -3 25 4 20 7 -4 14 3 18 19 6 24 7 25 21 8 13 -17 14 -16 9 9 -4 15 -2 30 4 33 5 3 10 1 10 -4 0 -6 5 -11 10 -11 6 0 10 9 10 21 0 14 5 19 14 16 8 -3 17 1 20 9 4 10 13 13 26 9 14 -5 20 -2 20 9 0 9 5 16 10 16 6 0 10 -7 10 -15z m100 5 c0 -5 -9 -10 -21 -10 -11 0 -17 5 -14 10 3 6 13 10 21 10 8 0 14 -4 14 -10z m-107 -614 c65 -10 75 -30 11 -22 -127 15 -174 30 -174 56 0 17 4 17 58 -4 32 -13 80 -26 105 -30z m205 12 c17 -1 32 -5 32 -9 0 -10 -30 -20 -41 -14 -11 7 -69 -22 -69 -35 0 -6 0 -13 0 -17 0 -5 -30 -11 -67 -14 l-68 -5 68 -2 c59 -2 67 -4 67 -21 0 -15 -8 -21 -32 -24 l-33 -4 35 -1 c29 -2 36 -6 37 -23 2 -20 -2 -21 -42 -16 -25 2 -42 1 -39 -4 3 -5 25 -9 49 -9 29 0 45 -5 49 -15 3 -9 0 -15 -9 -15 -8 0 -15 -5 -15 -11 0 -6 9 -8 20 -4 16 5 20 2 20 -14 0 -19 -6 -21 -62 -21 -72 0 -110 8 -102 21 3 5 2 9 -3 8 -4 -1 -17 0 -28 1 -11 2 5 6 35 10 l55 7 -47 1 c-44 2 -81 22 -41 22 15 0 16 2 3 10 -10 6 -11 10 -3 10 9 0 10 7 3 25 -6 16 -6 25 1 25 6 0 6 6 0 19 -6 10 -7 22 -3 26 4 3 7 12 7 18 0 7 9 13 20 15 54 8 65 13 65 32 0 19 -8 23 -75 36 -80 14 4 20 94 6 47 -7 101 -14 119 -14z m-181 -303 c29 -22 52 -43 52 -46 2 -11 91 -99 101 -99 17 0 11 18 -7 23 -10 3 2 5 26 6 38 1 42 -1 31 -14 -11 -13 -10 -14 4 -9 9 3 16 1 16 -5 0 -6 -6 -11 -12 -12 -7 0 -4 -4 7 -9 18 -7 19 -8 3 -15 -10 -4 -26 -4 -35 -1 -15 6 -15 8 -3 16 12 8 10 10 -9 10 -21 0 -22 -2 -10 -17 22 -29 37 -43 44 -43 3 0 3 5 0 10 -4 6 6 10 22 10 23 0 25 -2 13 -11 -12 -9 -11 -10 8 -6 15 4 22 0 22 -10 0 -13 -11 -15 -67 -10 -38 3 -78 9 -90 13 -15 4 -23 2 -23 -5 0 -7 3 -10 8 -7 4 2 32 -2 62 -9 55 -13 58 -19 8 -15 -16 1 -28 -3 -28 -8 0 -14 -52 -2 -73 16 -17 15 -17 15 -8 -10 9 -23 7 -25 -10 -21 -10 3 -16 9 -13 14 3 5 -2 9 -10 9 -9 0 -16 7 -16 15 0 8 -4 15 -10 15 -15 0 -12 -16 5 -30 8 -7 15 -18 15 -25 0 -8 6 -16 13 -19 9 -5 9 -7 -1 -12 -9 -4 -5 -11 14 -20 31 -16 42 -13 19 6 -23 19 -18 33 10 28 14 -3 25 -1 25 3 0 5 15 9 33 9 17 0 48 4 66 10 38 10 113 -6 152 -33 22 -16 10 -33 -16 -23 -8 3 -15 1 -15 -4 0 -6 6 -10 13 -11 18 -1 -34 -17 -61 -18 -13 -1 -35 12 -52 29 -17 17 -30 27 -30 22 0 -12 22 -37 49 -55 23 -15 22 -15 -25 -18 -27 -1 -130 -3 -228 -3 -135 -1 -180 2 -184 12 -2 6 -14 12 -28 12 -31 0 -82 32 -77 48 3 8 -2 10 -14 6 -14 -4 -15 -4 -4 4 7 5 11 15 7 20 -4 6 8 19 26 28 18 9 34 13 35 8 8 -23 23 -38 30 -31 4 5 1 12 -7 17 -8 6 -10 10 -5 10 6 0 4 4 -3 9 -10 6 -10 10 3 21 12 10 15 10 15 0 0 -15 29 -39 48 -40 20 0 14 14 -15 32 -24 15 -25 18 -8 18 17 0 17 2 5 10 -9 6 -10 10 -3 10 6 0 15 -4 18 -10 3 -5 11 -10 18 -10 8 0 8 3 0 11 -12 12 -7 39 6 39 4 0 13 -12 19 -26 7 -14 17 -22 22 -19 6 4 3 13 -7 23 -16 16 -15 17 15 20 28 3 30 5 18 18 -17 16 -30 19 -21 4 4 -6 -9 -10 -32 -9 -34 1 -35 2 -13 9 14 4 19 8 13 9 -7 1 -13 6 -13 11 0 6 11 8 25 4 15 -4 25 -2 25 5 0 6 -6 11 -13 11 -7 0 -13 9 -14 20 -2 17 3 19 25 14 15 -3 22 -2 16 3 -6 4 -13 16 -17 26 -5 14 -1 17 26 18 28 0 29 1 11 9 -31 12 -39 40 -11 41 17 1 18 2 5 6 -10 2 -18 8 -18 13 0 14 31 -2 87 -45z m155 0 c15 -21 7 -25 -50 -25 -45 0 -61 4 -75 20 -16 19 -16 20 51 17 37 -1 70 -6 74 -12z m28 -45 c0 -5 -6 -10 -12 -11 -7 0 -4 -4 7 -9 14 -7 5 -9 -33 -7 -29 1 -52 6 -51 12 0 5 -8 12 -18 16 -10 5 8 8 45 8 35 1 62 -3 62 -9z m10 -50 c11 -7 2 -10 -32 -10 -27 0 -48 5 -48 10 0 13 60 13 80 0z m99 -146 c-6 -8 -18 -14 -25 -14 -11 0 -10 5 4 18 19 21 39 18 21 -4z m-559 6 c0 -5 -5 -10 -11 -10 -5 0 -7 5 -4 10 3 6 8 10 11 10 2 0 4 -4 4 -10z m625 -38 c2 -26 1 -26 -30 -6 -13 8 -21 22 -19 29 8 21 47 2 49 -23z m-19 -137 c17 -42 18 -48 2 -39 -7 4 -8 3 -4 -4 4 -7 14 -12 22 -12 15 0 41 -46 32 -56 -4 -3 -35 14 -70 39 -34 24 -73 49 -85 56 -38 20 -26 4 15 -21 22 -13 60 -41 87 -63 26 -22 52 -40 59 -40 6 0 11 -9 11 -20 -1 -11 2 -22 6 -25 12 -9 22 -53 10 -46 -6 4 -11 14 -11 22 0 8 -7 14 -15 14 -8 0 -15 4 -15 10 0 18 -138 140 -159 140 -6 0 -11 5 -11 10 0 6 -7 10 -16 10 -9 0 12 -21 47 -47 78 -60 78 -60 113 -108 17 -22 36 -44 43 -48 7 -4 13 -15 13 -22 0 -8 3 -15 8 -15 4 0 8 -14 9 -30 2 -24 -3 -33 -22 -42 -28 -13 -33 -10 -38 18 -2 10 -8 29 -15 41 -7 12 -12 26 -12 32 0 21 -133 161 -154 161 -5 0 -17 6 -25 13 -20 17 -74 40 -67 29 3 -5 25 -19 50 -31 89 -46 169 -136 206 -233 l18 -49 -24 -10 c-14 -5 -34 -9 -45 -9 -10 0 -19 -4 -19 -8 0 -4 -8 -8 -17 -9 -10 -1 -47 -6 -83 -12 -154 -23 -396 5 -508 59 -45 22 -55 40 -42 75 5 13 7 38 5 55 -2 17 1 30 7 30 6 0 9 3 5 6 -3 4 0 19 8 34 8 15 12 30 10 34 -3 3 -2 4 2 1 3 -3 11 0 18 5 8 7 18 -3 35 -33 13 -23 22 -42 20 -42 -10 -1 61 -65 71 -65 6 0 8 -4 4 -9 -3 -5 16 -20 42 -33 26 -13 55 -31 65 -40 10 -10 24 -18 31 -18 6 1 1 7 -13 15 -14 8 -21 14 -17 15 12 0 -20 30 -32 30 -20 0 -60 23 -55 31 3 5 1 9 -3 9 -11 0 -77 60 -66 60 4 0 0 5 -9 11 -11 6 -15 16 -11 26 4 11 3 14 -5 9 -7 -4 -12 -1 -12 8 0 9 -4 16 -10 16 -5 0 -10 9 -10 19 0 11 -4 22 -8 25 -7 4 -8 36 -3 54 1 1 25 -11 54 -27 28 -16 99 -41 157 -56 58 -14 123 -30 145 -37 22 -6 56 -13 75 -15 47 -7 80 -20 80 -33 0 -5 5 -10 11 -10 8 0 8 5 -1 15 -7 8 -8 15 -3 15 5 0 17 -9 26 -21 10 -11 21 -18 24 -15 7 7 -46 51 -62 51 -5 0 -30 13 -53 28 -24 16 -46 26 -49 23 -3 -3 6 -11 21 -17 14 -7 26 -16 26 -21 0 -11 -18 -10 -25 2 -4 6 -11 8 -16 5 -5 -4 -9 -1 -9 5 0 6 -4 9 -8 6 -13 -8 -83 14 -77 24 3 5 -11 6 -32 4 -30 -5 -35 -3 -23 6 12 9 9 11 -17 8 -18 -3 -30 -1 -27 4 3 4 -7 8 -23 8 -42 0 -104 20 -97 31 3 6 -5 7 -23 4 -21 -5 -24 -4 -13 4 13 9 13 11 -2 11 -21 0 -32 16 -17 26 8 4 9 3 5 -4 -4 -7 -3 -12 3 -12 5 0 13 5 16 10 4 6 11 8 16 4 5 -3 7 -10 4 -15 -4 -5 4 -5 19 1 17 6 26 6 26 0 0 -6 -5 -10 -12 -10 -6 0 -8 -3 -5 -6 4 -4 13 -2 20 4 9 8 47 9 120 4 71 -5 107 -4 107 3 0 5 4 4 9 -4 6 -9 11 -10 15 -2 4 6 17 10 29 9 12 0 49 5 82 12 33 7 72 13 88 14 15 1 27 4 27 9 0 17 12 4 26 -28z m-642 -86 c-8 -14 -24 -10 -24 6 0 9 6 12 15 9 8 -4 12 -10 9 -15z"/> <path d="M1015 1802 c4 -13 15 -32 25 -42 9 -9 25 -31 35 -48 10 -17 26 -33 36 -35 31 -8 30 6 -2 25 -16 10 -27 23 -24 28 3 6 0 10 -7 10 -7 0 -26 19 -41 43 -18 26 -26 33 -22 19z"/> <path d="M1077 1793 c8 -24 24 -43 34 -43 10 0 -1 31 -17 48 -18 17 -24 15 -17 -5z"/> <path d="M1128 1733 c7 -3 16 -2 19 1 4 3 -2 6 -13 5 -11 0 -14 -3 -6 -6z"/> <path d="M1046 1676 c22 -24 48 -44 59 -44 11 0 14 2 7 5 -6 2 -29 22 -51 44 -52 53 -63 50 -15 -5z"/> <path d="M1154 1703 c3 -20 21 -28 30 -14 4 5 -2 15 -13 20 -16 9 -19 8 -17 -6z"/> <path d="M805 1645 c19 -36 32 -65 29 -65 -4 0 5 -10 20 -21 15 -12 30 -19 33 -15 4 3 1 6 -6 6 -7 0 -9 5 -6 10 3 6 -1 13 -9 16 -8 3 -29 35 -47 70 -18 35 -36 64 -41 64 -5 0 7 -29 27 -65z"/> <path d="M980 1687 c0 -16 49 -61 57 -54 3 4 -8 20 -26 36 -17 16 -31 24 -31 18z"/> <path d="M948 1655 c19 -33 36 -51 55 -58 28 -10 18 5 -25 43 -26 22 -37 27 -30 15z"/> <path d="M845 1650 c4 -6 11 -8 16 -5 14 9 11 15 -7 15 -8 0 -12 -5 -9 -10z"/> <path d="M1158 1633 c6 -2 18 -2 25 0 6 3 1 5 -13 5 -14 0 -19 -2 -12 -5z"/> <path d="M870 1625 c0 -19 53 -85 68 -85 11 0 5 12 -19 38 -18 20 -37 41 -41 47 -5 5 -8 5 -8 0z"/> <path d="M920 1620 c0 -5 9 -14 20 -20 12 -6 17 -16 13 -27 -4 -11 -2 -14 8 -11 7 2 22 -5 31 -16 10 -12 17 -15 16 -8 -3 12 -76 92 -85 92 -1 0 -3 -4 -3 -10z"/> <path d="M776 1605 c4 -8 10 -15 15 -15 5 0 8 -3 7 -7 -3 -16 15 -43 29 -43 12 0 12 2 -1 16 -9 8 -19 26 -22 40 -3 13 -12 24 -20 24 -8 0 -11 -6 -8 -15z"/> <path d="M1203 1583 c9 -2 25 -2 35 0 9 3 1 5 -18 5 -19 0 -27 -2 -17 -5z"/> <path d="M750 1570 c0 -5 5 -10 10 -10 6 0 10 5 10 10 0 6 -4 10 -10 10 -5 0 -10 -4 -10 -10z"/> <path d="M1048 1553 c6 -2 18 -2 25 0 6 3 1 5 -13 5 -14 0 -19 -2 -12 -5z"/> <path d="M1153 1543 c9 -2 25 -2 35 0 9 3 1 5 -18 5 -19 0 -27 -2 -17 -5z"/> <path d="M778 1523 c7 -3 16 -2 19 1 4 3 -2 6 -13 5 -11 0 -14 -3 -6 -6z"/> <path d="M840 1514 c0 -8 5 -14 11 -14 5 0 8 -4 5 -9 -3 -5 4 -11 16 -14 12 -4 22 -5 23 -4 0 1 -12 14 -27 29 -19 18 -28 22 -28 12z"/> <path d="M1020 1520 c0 -5 5 -10 10 -10 6 0 10 5 10 10 0 6 -4 10 -10 10 -5 0 -10 -4 -10 -10z"/> <path d="M1148 1503 c7 -3 16 -2 19 1 4 3 -2 6 -13 5 -11 0 -14 -3 -6 -6z"/> <path d="M930 1480 c8 -5 22 -10 30 -10 13 0 13 1 0 10 -8 5 -22 10 -30 10 -13 0 -13 -1 0 -10z"/> <path d="M848 1433 c7 -3 16 -2 19 1 4 3 -2 6 -13 5 -11 0 -14 -3 -6 -6z"/> <path d="M908 1433 c6 -2 18 -2 25 0 6 3 1 5 -13 5 -14 0 -19 -2 -12 -5z"/> <path d="M1108 1413 c7 -3 16 -2 19 1 4 3 -2 6 -13 5 -11 0 -14 -3 -6 -6z"/> <path d="M975 1390 c-3 -5 1 -10 10 -10 9 0 13 5 10 10 -3 6 -8 10 -10 10 -2 0 -7 -4 -10 -10z"/> <path d="M875 1350 c27 -12 43 -12 25 0 -8 5 -22 9 -30 9 -10 0 -8 -3 5 -9z"/> <path d="M1028 1203 c7 -3 16 -2 19 1 4 3 -2 6 -13 5 -11 0 -14 -3 -6 -6z"/> <path d="M960 1110 c8 -5 20 -10 25 -10 6 0 3 5 -5 10 -8 5 -19 10 -25 10 -5 0 -3 -5 5 -10z"/> <path d="M938 1083 c7 -3 16 -2 19 1 4 3 -2 6 -13 5 -11 0 -14 -3 -6 -6z"/> <path d="M930 1066 c0 -2 7 -6 15 -10 8 -3 15 -1 15 4 0 6 -7 10 -15 10 -8 0 -15 -2 -15 -4z"/> <path d="M1048 1033 c7 -3 16 -2 19 1 4 3 -2 6 -13 5 -11 0 -14 -3 -6 -6z"/> <path d="M1016 1012 c-2 -4 4 -8 14 -8 10 0 16 4 14 8 -3 4 -9 8 -14 8 -5 0 -11 -4 -14 -8z"/> <path d="M1058 983 c7 -3 16 -2 19 1 4 3 -2 6 -13 5 -11 0 -14 -3 -6 -6z"/> <path d="M908 873 c7 -3 16 -2 19 1 4 3 -2 6 -13 5 -11 0 -14 -3 -6 -6z"/> <path d="M950 876 c0 -9 30 -14 35 -6 4 6 -3 10 -14 10 -12 0 -21 -2 -21 -4z"/> <path d="M870 840 c6 -11 18 -20 27 -20 14 0 13 3 -5 20 -12 11 -24 20 -27 20 -3 0 -1 -9 5 -20z"/> <path d="M920 850 c0 -5 5 -10 11 -10 5 0 7 5 4 10 -3 6 -8 10 -11 10 -2 0 -4 -4 -4 -10z"/> <path d="M948 823 c6 -2 18 -2 25 0 6 3 1 5 -13 5 -14 0 -19 -2 -12 -5z"/> <path d="M990 820 c0 -5 10 -10 23 -10 18 0 19 2 7 10 -19 13 -30 13 -30 0z"/> <path d="M1040 820 c0 -6 7 -10 15 -10 8 0 15 2 15 4 0 2 -7 6 -15 10 -8 3 -15 1 -15 -4z"/> <path d="M1060 790 c8 -5 20 -10 25 -10 6 0 3 5 -5 10 -8 5 -19 10 -25 10 -5 0 -3 -5 5 -10z"/> <path d="M950 782 c8 -5 40 -13 70 -17 30 -3 63 -9 74 -12 11 -3 16 -1 12 5 -3 5 -29 12 -57 16 -29 4 -66 9 -83 12 -22 4 -27 3 -16 -4z"/> <path d="M925 760 c3 -5 8 -10 11 -10 2 0 4 5 4 10 0 6 -5 10 -11 10 -5 0 -7 -4 -4 -10z"/> <path d="M984 743 c2 -11 13 -19 27 -21 21 -2 22 -1 6 8 -9 6 -15 15 -12 21 4 5 0 9 -9 9 -8 0 -13 -8 -12 -17z"/> <path d="M880 740 c0 -5 7 -10 16 -10 8 0 12 5 9 10 -3 6 -10 10 -16 10 -5 0 -9 -4 -9 -10z"/> <path d="M1038 743 c7 -3 16 -2 19 1 4 3 -2 6 -13 5 -11 0 -14 -3 -6 -6z"/> <path d="M1098 733 c7 -3 16 -2 19 1 4 3 -2 6 -13 5 -11 0 -14 -3 -6 -6z"/> <path d="M820 680 c6 -12 16 -18 23 -13 8 5 8 8 -1 11 -7 2 -10 8 -6 13 3 5 -2 9 -11 9 -13 0 -14 -4 -5 -20z"/> <path d="M858 693 c7 -3 16 -2 19 1 4 3 -2 6 -13 5 -11 0 -14 -3 -6 -6z"/> <path d="M927 668 c10 -21 24 -38 31 -38 18 0 15 5 -19 42 l-30 33 18 -37z"/> <path d="M674 664 c3 -9 6 -18 6 -20 0 -11 19 -2 24 12 3 8 2 12 -4 9 -6 -3 -10 -1 -10 4 0 6 -5 11 -11 11 -6 0 -8 -7 -5 -16z"/> <path d="M879 658 c5 -13 16 -25 26 -26 16 -4 16 -2 -1 22 -23 32 -36 33 -25 4z"/> <path d="M780 665 c0 -15 18 -40 24 -34 3 3 -1 14 -9 25 -8 10 -14 15 -15 9z"/> <path d="M725 640 c-3 -6 1 -7 9 -4 18 7 21 14 7 14 -6 0 -13 -4 -16 -10z"/> <path d="M826 642 c-2 -4 4 -9 15 -9 10 -1 19 2 19 8 0 11 -27 12 -34 1z"/> <path d="M1203 625 c15 -14 33 -25 38 -25 6 0 -3 11 -19 25 -39 32 -56 32 -19 0z"/> <path d="M1080 630 c0 -5 7 -10 15 -10 8 0 15 -4 15 -10 0 -5 5 -10 11 -10 14 0 2 18 -22 30 -13 7 -19 7 -19 0z"/> <path d="M858 613 c7 -3 16 -2 19 1 4 3 -2 6 -13 5 -11 0 -14 -3 -6 -6z"/> <path d="M898 613 c6 -2 18 -2 25 0 6 3 1 5 -13 5 -14 0 -19 -2 -12 -5z"/> <path d="M950 600 c8 -5 22 -10 30 -10 13 0 13 1 0 10 -8 5 -22 10 -30 10 -13 0 -13 -1 0 -10z"/> <path d="M1225 530 c-3 -5 5 -12 17 -16 13 -4 26 -12 30 -18 5 -7 8 -6 8 4 0 17 -47 43 -55 30z"/> <path d="M1090 506 c0 -3 14 -12 30 -21 17 -9 30 -13 30 -11 0 3 -13 12 -30 21 -16 9 -30 13 -30 11z"/> <path d="M837 483 c18 -2 50 -2 70 0 21 2 7 4 -32 4 -38 0 -55 -2 -38 -4z"/> <path d="M680 469 c0 -5 5 -7 10 -4 6 3 10 8 10 11 0 2 -4 4 -10 4 -5 0 -10 -5 -10 -11z"/> <path d="M999 460 c24 -11 46 -19 48 -16 5 5 -62 36 -79 36 -7 0 7 -9 31 -20z"/> <path d="M710 440 c-9 -6 -10 -10 -3 -10 6 0 15 5 18 10 8 12 4 12 -15 0z"/> <path d="M1200 434 c36 -23 106 -114 131 -168 11 -26 23 -45 26 -43 20 21 -133 227 -169 227 -7 0 -2 -8 12 -16z"/> <path d="M743 423 c-13 -2 -23 -9 -23 -14 0 -12 10 -11 40 6 25 15 23 16 -17 8z"/> <path d="M644 392 c3 -30 30 -76 64 -111 34 -35 50 -39 26 -7 -8 11 -14 16 -14 11 0 -5 -11 7 -25 28 -14 20 -23 42 -20 47 3 6 -1 10 -9 10 -9 0 -13 6 -10 14 3 8 1 17 -4 20 -5 3 -8 -2 -8 -12z"/> <path d="M858 403 c7 -3 16 -2 19 1 4 3 -2 6 -13 5 -11 0 -14 -3 -6 -6z"/> <path d="M785 390 c-3 -5 -3 -10 2 -10 4 0 24 -15 43 -33 19 -18 56 -43 83 -56 26 -13 45 -27 42 -31 -3 -5 -1 -11 4 -14 5 -4 8 0 7 7 -3 20 -43 56 -71 63 -14 3 -25 10 -25 15 0 5 -4 9 -10 9 -5 0 -20 10 -32 23 -13 12 -22 25 -20 30 3 11 -16 9 -23 -3z"/> <path d="M743 376 c9 -7 17 -17 17 -23 0 -12 87 -77 125 -94 17 -8 35 -20 41 -28 7 -9 13 -10 17 -3 7 10 -54 52 -76 52 -7 0 -38 25 -70 55 -32 30 -61 55 -65 55 -4 0 1 -7 11 -14z"/> <path d="M868 368 c14 -18 143 -84 156 -80 5 2 24 -12 43 -30 23 -22 32 -27 27 -14 -6 15 -4 17 6 11 9 -5 11 -4 6 4 -4 6 -11 9 -16 6 -5 -3 -17 3 -27 14 -10 11 -30 22 -43 24 -39 7 -80 29 -74 39 3 5 2 8 -3 7 -8 -2 -56 15 -77 28 -6 4 -5 0 2 -9z"/> <path d="M616 354 c-4 -9 -4 -19 -1 -22 2 -3 7 3 11 12 4 9 4 19 1 22 -2 3 -7 -3 -11 -12z"/> <path d="M1010 360 c0 -7 -9 -9 -22 -5 -13 4 -4 -5 20 -20 23 -14 46 -24 51 -21 4 3 18 -5 31 -19 20 -21 66 -32 54 -13 -3 5 -10 6 -15 2 -6 -3 -20 5 -32 18 -31 34 -87 72 -87 58z m36 -25 c10 -8 14 -15 8 -15 -5 0 -19 7 -30 15 -10 8 -14 15 -8 15 5 0 19 -7 30 -15z"/> <path d="M1090 353 c1 -12 76 -63 84 -56 12 12 6 23 -13 23 -11 0 -23 4 -26 10 -9 14 -45 32 -45 23z"/> <path d="M630 320 c0 -6 6 -20 13 -31 10 -17 10 -23 0 -26 -7 -3 -13 -12 -13 -21 0 -13 3 -12 15 4 12 15 16 16 23 6 8 -11 10 -11 15 2 4 10 1 16 -8 16 -9 0 -12 6 -9 15 4 8 -1 17 -10 21 -9 3 -13 10 -10 15 3 5 0 9 -5 9 -6 0 -11 -5 -11 -10z"/> <path d="M1246 297 c3 -10 9 -15 12 -12 3 3 0 11 -7 18 -10 9 -11 8 -5 -6z"/> <path d="M607 287 c-3 -8 -2 -20 3 -26 5 -9 8 -4 8 13 0 29 -3 32 -11 13z"/> <path d="M1226 275 c9 -14 22 -42 30 -63 7 -21 13 -28 14 -18 0 25 -39 106 -51 106 -5 0 -2 -11 7 -25z"/> <path d="M978 269 c6 -15 18 -24 32 -25 13 -1 32 -12 42 -25 18 -23 19 -23 8 -2 -12 26 -39 42 -59 35 -8 -2 -11 0 -8 6 4 5 0 15 -8 22 -13 11 -14 9 -7 -11z"/> <path d="M1191 233 c10 -21 19 -43 19 -50 0 -6 4 -14 9 -18 6 -3 6 6 2 22 -13 42 -33 83 -42 83 -4 0 2 -17 12 -37z"/> <path d="M756 245 c-3 -8 -1 -15 4 -15 6 0 10 7 10 15 0 8 -2 15 -4 15 -2 0 -6 -7 -10 -15z"/> <path d="M1133 253 c7 -14 34 -78 40 -93 4 -12 6 -11 6 3 1 19 -35 97 -45 97 -3 0 -3 -3 -1 -7z"/> <path d="M690 240 c0 -5 5 -10 11 -10 5 0 7 -5 3 -12 -4 -7 -3 -8 4 -4 7 4 12 2 12 -3 0 -6 5 -11 10 -11 17 0 10 14 -15 33 -14 10 -25 13 -25 7z"/> <path d="M656 215 c4 -8 8 -15 10 -15 2 0 4 7 4 15 0 8 -4 15 -10 15 -5 0 -7 -7 -4 -15z"/> <path d="M780 221 c0 -5 7 -12 16 -15 15 -6 15 -8 -1 -26 -10 -11 -13 -20 -7 -20 6 0 19 -3 29 -6 17 -6 17 -6 -1 8 -33 26 1 32 51 8 25 -11 47 -19 50 -16 2 2 -5 7 -16 11 -12 3 -21 11 -21 16 0 5 -9 9 -20 9 -11 0 -20 4 -20 10 0 5 -7 6 -17 3 -10 -4 -14 -2 -10 4 4 6 0 14 -9 17 -21 8 -24 8 -24 -3z"/> <path d="M1000 202 c14 -17 31 -33 39 -37 8 -3 3 9 -11 27 -14 17 -31 34 -38 36 -8 3 -3 -9 10 -26z"/> <path d="M1287 210 c3 -11 7 -20 9 -20 2 0 4 9 4 20 0 11 -4 20 -9 20 -5 0 -7 -9 -4 -20z"/> <path d="M757 203 c-11 -11 -8 -20 7 -20 8 0 12 6 9 14 -6 15 -7 15 -16 6z"/> <path d="M1113 186 c7 -14 13 -23 15 -21 7 6 -9 45 -18 45 -4 0 -3 -11 3 -24z"/> <path d="M975 172 c-3 -9 -3 -13 1 -9 4 4 12 -1 19 -10 7 -9 14 -12 17 -7 3 5 -3 17 -13 26 -16 15 -18 15 -24 0z"/> </g> </svg> 